UNKNOWN
version=1
nRows=36
nColumns=13
inDegrees=no
endheader
time	time	pelvis_tilt	hip_flexion_r	knee_angle_r	ankle_angle_r	pelvis_tilt	hip_flexion_r	knee_angle_r	ankle_angle_r	hip_flexion_l	knee_angle_l	ankle_angle_l
     88.00000000	      5.25000000	     -5.85267155	    -36.31279724	    -10.57275009	      5.71648508	     -5.85267155	    -36.31279724	    -10.57275009	      5.71648508	      5.11485525	     -0.73174317	     -0.48010797
     89.00000000	      5.26000000	     -5.34436151	    -35.79211136	    -13.11745698	      4.88287535	     -5.34436151	    -35.79211136	    -13.11745698	      4.88287535	      4.99944900	     -2.10723634	     -2.41434953
     90.00000000	      5.27000000	     -4.68736743	    -35.09215410	    -15.91777243	      3.58840339	     -4.68736743	    -35.09215410	    -15.91777243	      3.58840339	      4.79222620	     -3.29992363	     -4.49869711
     91.00000000	      5.28000000	     -3.87546126	    -34.20948637	    -18.97377106	      1.71794231	     -3.87546126	    -34.20948637	    -18.97377106	      1.71794231	      4.51428234	     -4.42351654	     -6.31670463
     92.00000000	      5.29000000	     -2.91977039	    -33.09247675	    -22.31591594	     -0.77642485	     -2.91977039	    -33.09247675	    -22.31591594	     -0.77642485	      4.27296766	     -5.71890979	     -7.41363285
     93.00000000	      5.30000000	     -1.86900504	    -31.69039121	    -25.94589323	     -3.93370231	     -1.86900504	    -31.69039121	    -25.94589323	     -3.93370231	      4.12708671	     -7.27670820	     -7.64476133
     94.00000000	      5.31000000	     -0.78832434	    -30.02228910	    -29.77061354	     -7.74887225	     -0.78832434	    -30.02228910	    -29.77061354	     -7.74887225	      4.11801029	     -9.07927114	     -7.15834068
     95.00000000	      5.32000000	      0.23226917	    -28.10635740	    -33.69134977	    -12.06980514	      0.23226917	    -28.10635740	    -33.69134977	    -12.06980514	      4.18835360	    -10.97321918	     -6.18807224
     96.00000000	      5.33000000	      1.12546616	    -26.11199416	    -37.52133246	    -16.64606528	      1.12546616	    -26.11199416	    -37.52133246	    -16.64606528	      4.12169504	    -12.70145809	     -4.96383991
     97.00000000	      5.34000000	      1.84214232	    -24.06594475	    -41.16340114	    -20.96664370	      1.84214232	    -24.06594475	    -41.16340114	    -20.96664370	      3.88668192	    -14.12614627	     -3.66076876
     98.00000000	      5.35000000	      2.38191596	    -21.98935564	    -44.58425034	    -24.35296930	      2.38191596	    -21.98935564	    -44.58425034	    -24.35296930	      3.45626879	    -15.16303370	     -2.35193770
     99.00000000	      5.36000000	      2.71076811	    -20.15110287	    -47.67082778	    -26.43086482	      2.71076811	    -20.15110287	    -47.67082778	    -26.43086482	      2.55938936	    -15.67985929	     -1.24138753
    100.00000000	      5.37000000	      2.84997927	    -18.26966172	    -50.53308770	    -26.79852199	      2.84997927	    -18.26966172	    -50.53308770	    -26.79852199	      1.52363990	    -15.83434391	     -0.28105271
    101.00000000	      5.38000000	      2.83318777	    -16.37804348	    -53.09733391	    -25.70958467	      2.83318777	    -16.37804348	    -53.09733391	    -25.70958467	      0.35675300	    -15.64459695	      0.46774195
    102.00000000	      5.39000000	      2.68709282	    -14.46348539	    -55.32606034	    -23.61355624	      2.68709282	    -14.46348539	    -55.32606034	    -23.61355624	     -0.87195154	    -15.20284808	      0.92600958
    103.00000000	      5.40000000	      2.48501446	    -12.49081929	    -57.19779090	    -21.11265155	      2.48501446	    -12.49081929	    -57.19779090	    -21.11265155	     -2.10281662	    -14.56065621	      1.14650545
    104.00000000	      5.41000000	      2.20556007	    -10.45259181	    -58.71254344	    -18.65713129	      2.20556007	    -10.45259181	    -58.71254344	    -18.65713129	     -3.29659836	    -13.81546223	      1.20360691
    105.00000000	      5.42000000	      1.92972354	     -8.36875303	    -59.89077953	    -16.52347198	      1.92972354	     -8.36875303	    -59.89077953	    -16.52347198	     -4.45883335	    -13.00326729	      1.17914116
    106.00000000	      5.43000000	      1.63849787	     -6.26479994	    -60.73919061	    -14.78688095	      1.63849787	     -6.26479994	    -60.73919061	    -14.78688095	     -5.56025659	    -12.19580183	      1.11999635
    107.00000000	      5.44000000	      1.35431943	     -4.21641894	    -61.24970738	    -13.35110052	      1.35431943	     -4.21641894	    -61.24970738	    -13.35110052	     -6.66764510	    -11.38282396	      1.12422966
    108.00000000	      5.45000000	      1.06888700	     -2.29954183	    -61.42208551	    -12.05831253	      1.06888700	     -2.29954183	    -61.42208551	    -12.05831253	     -7.84920194	    -10.54993232	      1.19951822
    109.00000000	      5.46000000	      0.78010120	     -0.41455056	    -61.27300306	    -10.80159370	      0.78010120	     -0.41455056	    -61.27300306	    -10.80159370	     -8.90803975	     -9.80937654	      1.37753848
    110.00000000	      5.47000000	      0.48919415	      1.25134464	    -60.78416347	     -9.45133501	      0.48919415	      1.25134464	    -60.78416347	     -9.45133501	    -10.07495276	     -9.07557738	      1.68197503
    111.00000000	      5.48000000	      0.21439669	      2.80001730	    -59.97446590	     -8.00397615	      0.21439669	      2.80001730	    -59.97446590	     -8.00397615	    -11.19558722	     -8.41436814	      2.07789923
    112.00000000	      5.49000000	     -0.03570169	      4.12925800	    -58.82008259	     -6.46755491	     -0.03570169	      4.12925800	    -58.82008259	     -6.46755491	    -12.34605887	     -7.81480569	      2.54085326
    113.00000000	      5.50000000	     -0.28067399	      5.26138445	    -57.31992702	     -5.01448313	     -0.28067399	      5.26138445	    -57.31992702	     -5.01448313	    -13.52563534	     -7.23589541	      3.02164331
    114.00000000	      5.51000000	     -0.53438770	      6.19346419	    -55.46576208	     -3.79375171	     -0.53438770	      6.19346419	    -55.46576208	     -3.79375171	    -14.76832621	     -6.64055683	      3.49387190
    115.00000000	      5.52000000	     -0.65305414	      7.08690005	    -53.35391749	     -2.79397092	     -0.65305414	      7.08690005	    -53.35391749	     -2.79397092	    -15.91965028	     -6.05992910	      3.86641167
    116.00000000	      5.53000000	     -0.73400532	      7.83411072	    -50.94562305	     -2.11205195	     -0.73400532	      7.83411072	    -50.94562305	     -2.11205195	    -17.09892136	     -5.47601410	      4.23508253
    117.00000000	      5.54000000	     -0.71442698	      8.49363501	    -48.29241170	     -1.68206686	     -0.71442698	      8.49363501	    -48.29241170	     -1.68206686	    -18.24923509	     -4.90472269	      4.56282025
    118.00000000	      5.55000000	     -0.61279726	      9.04773436	    -45.40263551	     -1.41504247	     -0.61279726	      9.04773436	    -45.40263551	     -1.41504247	    -19.39003053	     -4.34716272	      4.88562027
    119.00000000	      5.56000000	     -0.45052108	      9.48277263	    -42.28431336	     -1.22922492	     -0.45052108	      9.48277263	    -42.28431336	     -1.22922492	    -20.54187697	     -3.79435733	      5.21027830
    120.00000000	      5.57000000	     -0.25615979	      9.78733548	    -38.93079301	     -1.01080623	     -0.25615979	      9.78733548	    -38.93079301	     -1.01080623	    -21.71807856	     -3.22829529	      5.53873195
    121.00000000	      5.58000000	      0.01025694	     10.01773197	    -35.36925558	     -0.71664842	      0.01025694	     10.01773197	    -35.36925558	     -0.71664842	    -22.87028471	     -2.65388869	      5.87641090
    122.00000000	      5.59000000	      0.28637279	     10.12817742	    -31.56232585	     -0.37601040	      0.28637279	     10.12817742	    -31.56232585	     -0.37601040	    -24.02962712	     -2.07031477	      6.20684430
    123.00000000	      5.60000000	      0.56097775	     10.12998571	    -27.53706353	     -0.02597553	      0.56097775	     10.12998571	    -27.53706353	     -0.02597553	    -25.20054548	     -1.45513283	      6.54883392
